<svg width="122" height="80" viewBox="0 0 122 80" fill="none" xmlns="http://www.w3.org/2000/svg">
<g clip-path="url(#clip0_4086_9055)">
<path d="M103.302 13.9482L79.1113 19.6818V23.2175L103.302 18.8835V13.9482Z" fill="white"/>
<path d="M2.3166 58.9476C2.3166 50.9478 17.1578 44.5269 31.6856 39.6842L28.8423 29.7902L20.5267 33.053C18.8433 33.6845 17.2647 33.8945 15.7908 33.8945C9.26514 33.8945 4.84273 29.1574 4.84273 27.0529C4.84273 25.2631 8.21119 22.8418 14.7369 22.8418C18.7369 22.8418 22.5273 23.6845 25.5802 25.1575L26.1053 24.4216C25.4738 18.3163 22.5278 11.0527 15.1593 11.0527C6.73733 11.0527 2.42137 20.1053 2.42137 28.4216C2.42137 34.4213 4.73797 38.8423 8.63151 41.5797C3.68401 45.9999 0 52.2108 0 60.4215C0 71.9997 7.26368 80.0004 20.0016 80.0004L37.2642 68.1054V66.7367H20.2107C10.8433 66.7367 2.3166 64.9469 2.3166 58.9472V58.9476Z" fill="white"/>
<path d="M43.8579 51.8944C45.2253 48.4204 45.8569 44.9476 45.8569 41.2633V0H44.1735L38.6074 10.7368V58.4213H41.5409L43.8575 51.8948L43.8579 51.8944Z" fill="white"/>
<path d="M117.242 24.4213L114.4 20.7373H112.717L110.189 32.4211L119.031 42.5264H65.5744C65.3653 39.158 64.1006 36.2107 61.8904 33.6842L57.7861 28.526H55.9963L53.4705 40.631L63.0491 50.5258C60.9438 59.368 48.1015 66.7364 37.9961 69.578V71.0519L52.9438 77.9999C57.8909 72.1045 61.9973 64.8418 64.101 56.9467H121.242V35.1576C121.242 31.0521 119.979 27.4737 117.242 24.4209V24.4213Z" fill="white"/>
<path d="M105.178 68.3767L96.2092 62.1465L89.7305 71.6152L99.0748 78.2187L103.436 71.9885L112.28 78.2187L118.883 68.7505L109.414 62.1465L105.178 68.3767Z" fill="white"/>
</g>
<defs>
<clipPath id="clip0_4086_9055">
<rect width="121.242" height="80" fill="white"/>
</clipPath>
</defs>
</svg>
