<?xml version="1.0" encoding="iso-8859-1"?>
<!-- Uploaded to: SVG Repo, www.svgrepo.com, Generator: SVG Repo Mixer Tools -->
<svg height="800px" width="800px" version="1.1" id="Layer_1" xmlns="http://www.w3.org/2000/svg" xmlns:xlink="http://www.w3.org/1999/xlink" 
	 viewBox="0 0 512 512" xml:space="preserve">
<g transform="translate(1 1)">
	<g>
		<path style="fill:#FFDD09;" d="M255,75.8h68.267V24.6H255V75.8z"/>
		<path style="fill:#FFDD09;" d="M202.093,203.8v-34.133l52.907-51.2l52.907,51.2V203.8h134.827v247.467H307.907V485.4H202.093
			v-34.133H67.267V203.8H202.093z"/>
	</g>
	<path style="fill:#FFFFFF;" d="M41.667,451.267h25.6V203.8h-25.6V451.267z"/>
	<path style="fill:#FD9808;" d="M442.733,451.267h25.6V203.8h-25.6V451.267z"/>
	<path style="fill:#FCC309;" d="M348.867,203.8h76.8v-34.133h-76.8V203.8z"/>
	<path style="fill:#FD9808;" d="M425.667,203.8h25.6v-34.133h-25.6V203.8z"/>
	<path style="fill:#FCC309;" d="M84.333,203.8h76.8v-34.133h-76.8V203.8z"/>
	<path style="fill:#FFFFFF;" d="M58.733,203.8h25.6v-34.133h-25.6V203.8z"/>
	<g>
		<path style="fill:#FCC309;" d="M314.733,203.8v-34.133L255,118.467l-59.733,51.2V203.8H314.733z"/>
		<path style="fill:#FCC309;" d="M33.133,485.4h162.133v-34.133H33.133V485.4z"/>
	</g>
	<path style="fill:#FFFFFF;" d="M7.533,485.4h25.6v-34.133h-25.6V485.4z"/>
	<path style="fill:#FCC309;" d="M314.733,485.4h162.133v-34.133H314.733V485.4z"/>
	<path style="fill:#FD9808;" d="M476.867,485.4h25.6v-34.133h-25.6V485.4z"/>
	<g>
		<path style="fill:#54C9FD;" d="M101.4,306.2h34.133v-59.733H101.4V306.2z"/>
		<path style="fill:#54C9FD;" d="M101.4,408.6h34.133v-59.733H101.4V408.6z"/>
		<path style="fill:#54C9FD;" d="M237.933,306.2h34.133v-59.733h-34.133V306.2z"/>
		<path style="fill:#54C9FD;" d="M374.467,306.2H408.6v-59.733h-34.133V306.2z"/>
		<path style="fill:#54C9FD;" d="M374.467,408.6H408.6v-59.733h-34.133V408.6z"/>
		<path style="fill:#54C9FD;" d="M280.6,485.4h-51.2V383c0-14.507,11.093-25.6,25.6-25.6c14.507,0,25.6,11.093,25.6,25.6V485.4z"/>
	</g>
	<path d="M314.733,493.933H195.267c-5.12,0-8.533-3.413-8.533-8.533v-25.6H41.667c-5.12,0-8.533-3.413-8.533-8.533V203.8
		c0-5.12,3.413-8.533,8.533-8.533h145.067v-25.6c0-2.56,0.853-5.12,2.56-6.827l59.733-51.2c3.413-2.56,7.68-2.56,11.093,0
		l59.733,51.2c1.707,1.707,2.56,4.267,2.56,6.827v25.6H467.48c5.12,0,8.533,3.413,8.533,8.533v247.467
		c0,5.12-3.413,8.533-8.533,8.533H323.267v25.6C323.267,490.52,319.853,493.933,314.733,493.933z M203.8,476.867h102.4v-25.6
		c0-5.12,3.413-8.533,8.533-8.533H459.8v-230.4H314.733c-5.12,0-8.533-3.413-8.533-8.533v-29.867l-51.2-43.52l-51.2,43.52V203.8
		c0,5.12-3.413,8.533-8.533,8.533H50.2v230.4h145.067c5.12,0,8.533,3.413,8.533,8.533V476.867z"/>
	<path d="M255,127c-5.12,0-8.533-3.413-8.533-8.533V24.6c0-5.12,3.413-8.533,8.533-8.533s8.533,3.413,8.533,8.533v93.867
		C263.533,123.587,260.12,127,255,127z"/>
	<path d="M323.267,84.333H255c-5.12,0-8.533-3.413-8.533-8.533V24.6c0-5.12,3.413-8.533,8.533-8.533h68.267
		c5.12,0,8.533,3.413,8.533,8.533v51.2C331.8,80.92,328.387,84.333,323.267,84.333z M263.533,67.267h51.2V33.133h-51.2V67.267z"/>
	<path d="M135.533,314.733H101.4c-5.12,0-8.533-3.413-8.533-8.533v-59.733c0-5.12,3.413-8.533,8.533-8.533h34.133
		c5.12,0,8.533,3.413,8.533,8.533V306.2C144.067,311.32,140.653,314.733,135.533,314.733z M109.933,297.667H127V255h-17.067V297.667
		z"/>
	<path d="M135.533,417.133H101.4c-5.12,0-8.533-3.413-8.533-8.533v-59.733c0-5.12,3.413-8.533,8.533-8.533h34.133
		c5.12,0,8.533,3.413,8.533,8.533V408.6C144.067,413.72,140.653,417.133,135.533,417.133z M109.933,400.067H127V357.4h-17.067
		V400.067z"/>
	<path d="M272.067,314.733h-34.133c-5.12,0-8.533-3.413-8.533-8.533v-59.733c0-5.12,3.413-8.533,8.533-8.533h34.133
		c5.12,0,8.533,3.413,8.533,8.533V306.2C280.6,311.32,277.187,314.733,272.067,314.733z M246.467,297.667h17.067V255h-17.067
		V297.667z"/>
	<path d="M408.6,314.733h-34.133c-5.12,0-8.533-3.413-8.533-8.533v-59.733c0-5.12,3.413-8.533,8.533-8.533H408.6
		c5.12,0,8.533,3.413,8.533,8.533V306.2C417.133,311.32,413.72,314.733,408.6,314.733z M383,297.667h17.067V255H383V297.667z"/>
	<path d="M408.6,417.133h-34.133c-5.12,0-8.533-3.413-8.533-8.533v-59.733c0-5.12,3.413-8.533,8.533-8.533H408.6
		c5.12,0,8.533,3.413,8.533,8.533V408.6C417.133,413.72,413.72,417.133,408.6,417.133z M383,400.067h17.067V357.4H383V400.067z"/>
	<path d="M280.6,493.933h-51.2c-5.12,0-8.533-3.413-8.533-8.533V383c0-18.773,15.36-34.133,34.133-34.133
		s34.133,15.36,34.133,34.133v102.4C289.133,490.52,285.72,493.933,280.6,493.933z M237.933,476.867h34.133V383
		c0-9.387-7.68-17.067-17.067-17.067s-17.067,7.68-17.067,17.067V476.867z"/>
	<path d="M161.133,212.333h-102.4c-5.12,0-8.533-3.413-8.533-8.533v-34.133c0-5.12,3.413-8.533,8.533-8.533h102.4
		c5.12,0,8.533,3.413,8.533,8.533V203.8C169.667,208.92,166.253,212.333,161.133,212.333z M67.267,195.267H152.6V178.2H67.267
		V195.267z"/>
	<path d="M451.267,212.333h-102.4c-5.12,0-8.533-3.413-8.533-8.533v-34.133c0-5.12,3.413-8.533,8.533-8.533h102.4
		c5.12,0,8.533,3.413,8.533,8.533V203.8C459.8,208.92,456.387,212.333,451.267,212.333z M357.4,195.267h85.333V178.2H357.4V195.267z
		"/>
	<path d="M195.267,493.933H7.533C2.413,493.933-1,490.52-1,485.4v-34.133c0-5.12,3.413-8.533,8.533-8.533h187.733
		c5.12,0,8.533,3.413,8.533,8.533V485.4C203.8,490.52,200.387,493.933,195.267,493.933z M16.067,476.867h170.667V459.8H16.067
		V476.867z"/>
	<path d="M502.467,493.933H314.733c-5.12,0-8.533-3.413-8.533-8.533v-34.133c0-5.12,3.413-8.533,8.533-8.533h187.733
		c5.12,0,8.533,3.413,8.533,8.533V485.4C511,490.52,507.587,493.933,502.467,493.933z M323.267,476.867h170.667V459.8H323.267
		V476.867z"/>
	<path d="M152.6,314.733H84.333c-5.12,0-8.533-3.413-8.533-8.533s3.413-8.533,8.533-8.533H152.6c5.12,0,8.533,3.413,8.533,8.533
		S157.72,314.733,152.6,314.733z"/>
	<path d="M152.6,417.133H84.333c-5.12,0-8.533-3.413-8.533-8.533c0-5.12,3.413-8.533,8.533-8.533H152.6
		c5.12,0,8.533,3.413,8.533,8.533C161.133,413.72,157.72,417.133,152.6,417.133z"/>
	<path d="M425.667,417.133H357.4c-5.12,0-8.533-3.413-8.533-8.533c0-5.12,3.413-8.533,8.533-8.533h68.267
		c5.12,0,8.533,3.413,8.533,8.533C434.2,413.72,430.787,417.133,425.667,417.133z"/>
	<path d="M425.667,314.733H357.4c-5.12,0-8.533-3.413-8.533-8.533s3.413-8.533,8.533-8.533h68.267c5.12,0,8.533,3.413,8.533,8.533
		S430.787,314.733,425.667,314.733z"/>
	<path d="M289.133,314.733h-68.267c-5.12,0-8.533-3.413-8.533-8.533s3.413-8.533,8.533-8.533h68.267c5.12,0,8.533,3.413,8.533,8.533
		S294.253,314.733,289.133,314.733z"/>
	<path d="M314.733,212.333H195.267c-5.12,0-8.533-3.413-8.533-8.533v-34.133c0-2.56,0.853-5.12,2.56-6.827l59.733-51.2
		c3.413-2.56,7.68-2.56,11.093,0l59.733,51.2c1.707,1.707,2.56,4.267,2.56,6.827V203.8
		C323.267,208.92,319.853,212.333,314.733,212.333z M203.8,195.267h102.4v-21.333l-51.2-43.52l-51.2,43.52V195.267z"/>
</g>
</svg>