<svg width="21" height="21" viewBox="0 0 21 21" fill="none" xmlns="http://www.w3.org/2000/svg">
<path d="M20.1938 9.18084C19.9423 7.32856 19.1785 5.58335 17.9883 4.14196C16.7981 2.70057 15.2289 1.62033 13.4576 1.02303C11.6864 0.425725 9.78347 0.33511 7.96347 0.761401C6.14346 1.18769 4.47873 2.11394 3.15696 3.43571C1.83519 4.75748 0.908944 6.42221 0.482653 8.24221C0.0563624 10.0622 0.146977 11.9651 0.744281 13.7364C1.34159 15.5077 2.42183 17.0768 3.86321 18.267C5.3046 19.4572 7.04981 20.2211 8.90209 20.4725C9.03721 20.4901 9.17333 20.499 9.30959 20.4992C10.1885 20.4919 11.0288 20.1372 11.6471 19.5125L19.2304 11.9292C19.5904 11.5752 19.8645 11.1434 20.0315 10.667C20.1985 10.1905 20.254 9.6821 20.1938 9.18084ZM1.94376 9.57584C2.16789 7.59811 3.09016 5.7652 4.54476 4.4066C5.99936 3.04801 7.89089 2.25285 9.87929 2.16408C11.8677 2.0753 13.8226 2.69873 15.3925 3.92229C16.9623 5.14585 18.0443 6.88929 18.4438 8.83917C15.8335 8.87071 13.3389 9.9212 11.4924 11.7665C9.64589 13.6117 8.59372 16.1056 8.56043 18.7158C6.51059 18.3025 4.69144 17.1327 3.46482 15.4391C2.2382 13.7456 1.69399 11.6524 1.94043 9.57584H1.94376ZM10.4713 18.3333C10.3995 18.4023 10.322 18.465 10.2396 18.5208C10.3205 16.4236 11.1898 14.434 12.6739 12.9499C14.1579 11.4657 16.1473 10.5961 18.2446 10.515C18.1893 10.5978 18.1268 10.6756 18.0579 10.7475L10.4713 18.3333Z" fill="#00A988"/>
</svg>
